<?xml version="1.0" standalone="no"?>
<!DOCTYPE svg PUBLIC "-//W3C//DTD SVG 20010904//EN"
 "http://www.w3.org/TR/2001/REC-SVG-20010904/DTD/svg10.dtd">
<svg version="1.0" xmlns="http://www.w3.org/2000/svg"
 width="200.000000pt" height="200.000000pt" viewBox="0 0 200.000000 200.000000"
 preserveAspectRatio="xMidYMid meet">
<metadata>
Created by potrace 1.11, written by Peter Selinger 2001-2013
</metadata>
<g transform="translate(0.000000,200.000000) scale(0.100000,-0.100000)"
fill="#000000" stroke="none">
<path d="M1170 1698 c-14 -7 -33 -29 -43 -49 -55 -114 107 -202 174 -95 53 83
-44 189 -131 144z"/>
<path d="M1372 1320 c-18 -11 -37 -32 -42 -46 -11 -27 -14 -224 -4 -224 16 0
175 104 189 123 19 28 19 86 -1 115 -17 25 -64 52 -91 52 -10 0 -33 -9 -51
-20z"/>
<path d="M509 1302 c-26 -23 -32 -36 -32 -71 0 -79 73 -123 146 -90 59 27 68
116 18 161 -42 38 -90 38 -132 0z"/>
<path d="M1171 949 c-79 -48 -148 -92 -153 -97 -12 -12 161 -102 197 -102 39
0 81 25 94 57 7 18 11 68 9 129 l-3 101 -144 -88z"/>
<path d="M714 926 c-26 -26 -34 -42 -34 -71 0 -49 53 -105 99 -105 35 0 215
86 207 99 -3 4 -43 31 -89 59 -103 64 -134 67 -183 18z"/>
<path d="M680 415 l0 -125 70 0 c63 0 70 2 70 19 0 17 -8 20 -47 23 l-48 3 -3
103 c-2 94 -4 102 -22 102 -19 0 -20 -7 -20 -125z"/>
<path d="M857 534 c-4 -4 -7 -61 -7 -126 0 -118 0 -119 23 -116 21 3 22 6 22
123 0 100 -3 120 -15 123 -9 1 -19 0 -23 -4z"/>
<path d="M947 533 c-4 -3 -7 -60 -7 -125 0 -110 1 -118 20 -118 17 0 19 8 22
73 l3 72 20 -53 c23 -63 43 -65 65 -5 25 67 32 63 24 -15 -7 -74 -7 -74 17
-70 24 3 24 4 24 123 0 112 -1 120 -19 120 -16 0 -26 -16 -45 -72 -15 -40 -28
-73 -31 -73 -3 0 -18 34 -33 75 -26 68 -42 87 -60 68z"/>
<path d="M1191 514 c-12 -15 -21 -35 -21 -46 0 -22 33 -56 79 -80 21 -12 31
-24 29 -35 -4 -21 -43 -29 -62 -14 -14 11 -46 5 -46 -9 0 -17 40 -40 71 -40
79 0 109 73 49 123 -16 14 -39 28 -50 32 -21 7 -27 39 -9 51 6 3 21 1 34 -6
15 -8 28 -9 40 -2 16 9 16 11 -4 31 -31 31 -84 28 -110 -5z"/>
</g>
</svg>
